<?xml version="1.0" encoding="UTF-8" standalone="no"?>
<!-- Generator: Adobe Illustrator 18.1.1, SVG Export Plug-In . SVG Version: 6.00 Build 0)  -->

<svg
   xmlns:dc="http://purl.org/dc/elements/1.1/"
   xmlns:cc="http://creativecommons.org/ns#"
   xmlns:rdf="http://www.w3.org/1999/02/22-rdf-syntax-ns#"
   xmlns:svg="http://www.w3.org/2000/svg"
   xmlns="http://www.w3.org/2000/svg"
   xmlns:sodipodi="http://sodipodi.sourceforge.net/DTD/sodipodi-0.dtd"
   xmlns:inkscape="http://www.inkscape.org/namespaces/inkscape"
   version="1.1"
   id="Capa_1"
   x="0px"
   y="0px"
   viewBox="0 0 31.842 31.842"
   style="enable-background:new 0 0 31.842 31.842;"
   xml:space="preserve"
   inkscape:version="0.91 r13725"
   sodipodi:docname="play-button14.svg"><metadata
     id="metadata4242"><rdf:RDF><cc:Work
         rdf:about=""><dc:format>image/svg+xml</dc:format><dc:type
           rdf:resource="http://purl.org/dc/dcmitype/StillImage" /></cc:Work></rdf:RDF></metadata><defs
     id="defs4240" /><sodipodi:namedview
     pagecolor="#ffffff"
     bordercolor="#666666"
     borderopacity="1"
     objecttolerance="10"
     gridtolerance="10"
     guidetolerance="10"
     inkscape:pageopacity="0"
     inkscape:pageshadow="2"
     inkscape:window-width="1536"
     inkscape:window-height="801"
     id="namedview4238"
     showgrid="false"
     inkscape:zoom="19.848"
     inkscape:cx="15.921"
     inkscape:cy="15.921"
     inkscape:window-x="-8"
     inkscape:window-y="-8"
     inkscape:window-maximized="1"
     inkscape:current-layer="Capa_1" /><path
     d="M4.737,31.842c-1.656,0-3.003-1.348-3.003-3.003V3.003C1.734,1.347,3.081,0,4.737,0c0.521,0,1.038,0.14,1.497,0.404  l22.375,12.918c0.939,0.542,1.5,1.514,1.5,2.598c0,1.085-0.561,2.057-1.5,2.599L6.234,31.437  C5.775,31.701,5.258,31.842,4.737,31.842z M4.737,2C4.255,2,3.734,2.383,3.734,3.003v25.836c0,0.841,0.904,1.215,1.5,0.865  l22.375-12.918c0.451-0.261,0.5-0.692,0.5-0.866c0-0.173-0.049-0.604-0.5-0.865L5.234,2.137C5.076,2.046,4.909,2,4.737,2z"
     id="path4206"
     style="fill:#f44336;fill-opacity:1" /><g
     id="g4208" /><g
     id="g4210" /><g
     id="g4212" /><g
     id="g4214" /><g
     id="g4216" /><g
     id="g4218" /><g
     id="g4220" /><g
     id="g4222" /><g
     id="g4224" /><g
     id="g4226" /><g
     id="g4228" /><g
     id="g4230" /><g
     id="g4232" /><g
     id="g4234" /><g
     id="g4236" /></svg>